<?xml version="1.0" encoding="UTF-8"?><svg id="a" xmlns="http://www.w3.org/2000/svg" xmlns:xlink="http://www.w3.org/1999/xlink" viewBox="0 0 200.77 229.94"><defs><style>.c{fill:#0d71b7;}.d{clip-path:url(#b);}</style><clipPath id="b"><path class="c" d="M155.95,134.83c-30.07,1.1-80.92-1.79-85.34-39.84-5.9,39.65,38.01,49.25,68.83,50.8-32.5,1.64-79.08-6.23-78.66-47.32-2.19,7.93-2.27,16.46,.08,24.33,7.68,25.94,38.09,32.75,62.08,33.96-36.14,1.93-75.6-11.99-71.9-54.91-13.06,40.4,16.65,64.93,55.07,65.85,6.62-.07,13.2-.87,19.83-2.46,6.88-1.66,13.08-4.32,18.57-7.96,5.49-3.69,9.89-8.41,13.26-14.16,3.12-5.24,4.76-11.59,5.02-19-28.82,.34-71.98-3.18-81.86-31.17l-.41-1.4c-.96,35.41,48.46,41.48,75.42,43.29"/></clipPath></defs><g><path class="c" d="M155.95,134.83c-30.07,1.1-80.92-1.79-85.34-39.84-5.9,39.65,38.01,49.25,68.83,50.8-32.5,1.64-79.08-6.23-78.66-47.32-2.19,7.93-2.27,16.46,.08,24.33,7.68,25.94,38.09,32.75,62.08,33.96-36.14,1.93-75.6-11.99-71.9-54.91-13.06,40.4,16.65,64.93,55.07,65.85,6.62-.07,13.2-.87,19.83-2.46,6.88-1.66,13.08-4.32,18.57-7.96,5.49-3.69,9.89-8.41,13.26-14.16,3.12-5.24,4.76-11.59,5.02-19-28.82,.34-71.98-3.18-81.86-31.17l-.41-1.4c-.96,35.41,48.46,41.48,75.42,43.29"/><g class="d"><rect class="c" x="28.75" y="59.23" width="143.27" height="140.77" transform="translate(-61.39 103.05) rotate(-42.92)"/></g></g><path class="c" d="M20.1,0V167.71H94.97c-44.35-2.84-67.5-39.27-46.96-83.39,5.78-13.14,16.9-22.63,27.8-31.79,1-1.18,4.19-19.96,11.85-15.84,6.06-21.4,29.81-20.99,35.91-14.89,6.1,6.09,7.27,32.81-14.65,36.15,2.9,6.54-7.54,9.07-12.49,10.69-24.25,39.58,33.57,51.34,66.39,54.48,.01-.4,.03-.79,.03-1.19,0-5.85-.67-11.1-2.02-15.74-1.39-4.63-3.1-8.77-5.21-12.32-2.16-3.6-4.63-6.65-7.51-9.13-2.88-2.47-5.76-4.36-8.63-5.71,4.95-3.15,8.68-7.64,11.24-13.49,2.56-5.89,3.82-12.41,3.82-19.6s-1.21-13.89-3.69-19.6c-2.47-5.71-5.94-10.52-10.34-14.43-4.45-3.87-9.67-6.83-15.74-8.86-6.07-2.02-12.63-3.06-19.69-3.06H20.1Z"/></svg>